<?xml version="1.0" encoding="utf-8"?>
<!-- Generator: Adobe Illustrator 28.1.0, SVG Export Plug-In . SVG Version: 6.00 Build 0)  -->
<svg version="1.1" id="Calque_1" xmlns="http://www.w3.org/2000/svg"
	xmlns:xlink="http://www.w3.org/1999/xlink" x="0px" y="0px"
	viewBox="0 0 245 245" style="enable-background:new 0 0 245 245;" xml:space="preserve">
<style type="text/css">
	.st0{fill:#FFFFFF;}
</style>
<g>
	<path class="st0" d="M122.5,0C54.8,0,0,54.8,0,122.5S54.8,245,122.5,245c14.4,0,28.1-2.5,40.9-7c1.2-2.9,2.3-6.2,3-8.5
		c0.9-3.6,2.4-6.6,3.4-6.8c2.5-0.5,8.9-5.6,10.8-8.9l1.8-2.8l-2.1,1.2c-1.1,0.7-4.3,1.9-7.1,2.8l-5.2,1.6l-0.9-5
		c-0.5-2.8-1.5-6.5-2.2-8.3c-1.2-3.1-1.2-3.2,7.3-8.4c4.7-2.9,8.8-5.5,9.1-5.9c0.5-0.9-16.6,3.5-18.7,4.8c-1.1,0.7-3.2-0.8-7.4-5.5
		l-6-6.4l4.4-4c2.3-2.1,7-5.5,10.3-7.2l6-3.3l-8.6,1.2c-6.1,0.9-10.1,2.1-14.4,4.6l-6,3.3l-5.1-2.7c-2.9-1.5-7.3-3.6-9.8-4.6
		c-4-1.4-4.6-2-3.5-3.6c1.5-2.2,14.6-9.7,18-10.5c5-0.9,3-2.7-2.6-2.4c-6.1,0.3-18.2,4.8-22.4,8.2c-1.9,1.5-2.6,1.3-6-1.4
		c-4.4-3.8-9.2-11.1-8.7-13.6c0.6-3,10.7-7.6,20.5-9.5c7.7-1.4,8.8-1.8,6.9-2.7c-4.8-2.3-14.7-2.3-23.5-0.3l-8.6,2.1l-0.1-4.5
		c-0.2-9,5.4-20.7,14.5-30.3c2.4-2.6,4.6-4.7,4.9-4.8c0.4-0.1,1.4,1.7,2.3,3.8c2.2,5.8,5.2,9.2,11.7,13.6c5.8,3.8,5.9,3.8,4.8,7.6
		c-3,9.4,1,14.9,21,29.1c8.7,6,18.1,13.5,20.9,16.4c10.4,10.5,16.1,26,14.3,37.6c-1.5,8.8-7.8,19.9-16.6,29.9
		c42-19.4,71.2-61.9,71.2-111.2C245,54.8,190.1,0,122.5,0z M189.3,159.8c-5.4-9.2-7.7-12.1-15.1-18.2c-5.7-5-6-5.3-2.8-4.4
		c8.9,2.8,16.9,11.9,20,22.9l1.8,6.4L189.3,159.8z M198.4,127.8c-8.5,5.4-20.4,6.8-22.7,2.5c-1.4-2.6-13.7-9.4-31.9-17.5
		c-11.2-5-14.4-7-17-10.5c-3-4.2-5.2-11.5-4.5-15.3c0.2-1.1,0.7-1.9,1.1-2c0.8-0.1,27,1,27.5,1.3c0.6,0.3,8.7,17.2,8.3,17.3
		c-0.3,0.1-4.2-1.9-8.6-4.1c-4.4-2.4-8.3-4.2-8.7-4.1c-1.9,0.3,39.7,28.8,42.9,29.5c2.1,0.4,6.6,0.2,10.2-0.5
		C202,123.3,203.4,124.6,198.4,127.8z M208,67.4c-0.7,1.7-2.5,7.5-4.1,12.8c-1.5,5.3-3.9,11.1-5.3,12.9l-2.5,3.3l1.5-5.1
		c0.8-2.6,1.5-7.2,1.6-9.9c0.2-5.6-0.7-6.6-6-5.6c-2.9,0.5-3.4,1.3-4.5,6.1c-0.6,3-3,8.4-5.4,12l-4.3,6.7l1.3-4.9
		c1.6-5.9,1.5-17.6-0.1-18.2c-0.5-0.3-3.6,0.4-6.7,1.3c-6.8,2.1-19.2,3-48,3.5c-19,0.3-22.7,0.7-38.6,4.1
		c-11.4,2.4-19.8,4.7-23.9,6.7c-20.8,9.9-33.9,27.9-33.1,45.4c0.6,14.8,7.7,27.9,19.4,36c13.1,9.1,24.3,11.8,48.4,11.5
		c20.8-0.1,28.1,2,35.5,10.8c1.3,1.6,1.7,2.3,0.7,1.6c-3.6-2.9-10.9-6-16.1-6.9c-2.9-0.5-11.5-0.1-20.2,0.9
		c-24.3,2.8-37.5-0.1-55.9-12.6c-17-11.5-25.7-26.6-26.5-45.6c-0.8-17.3,7.2-32.1,23.5-44c12.8-9.3,20.8-12.4,58.3-22.5
		c18.7-5,34.7-9.4,35.5-9.8c4.3-1.9,22.9-4.6,31.7-4.7c19.7-0.1,38,3.5,42.5,8.2C209,63.9,209.1,64.3,208,67.4z"/>
	<path class="st0" d="M146.9,60.5c-4.1,2-4,2.9,0,6.2c3.6,3,10.6,3,16,0.1l3.7-2l-4.9-3.7C156.5,57.1,153.6,57.1,146.9,60.5z"/>
</g>
</svg>